<svg width="45" height="48" viewBox="0 0 45 48" fill="none" xmlns="http://www.w3.org/2000/svg">
<g clip-path="url(#clip0_993_514)" filter="url(#filter0_d_993_514)">
<path d="M13.5637 33.9949C12.7527 33.1802 13.1755 33.4099 11.2192 32.8839C10.3316 32.6449 9.55134 32.1855 8.84574 31.6352L4.61121 42.0639C4.20147 43.0736 4.96681 44.1705 6.05134 44.1292L10.9691 43.9408L14.3515 47.5296C15.0981 48.3208 16.4085 48.0742 16.8183 47.0646L21.6763 35.1002C20.6645 35.6664 19.5417 35.9983 18.3807 35.9983C16.5607 35.9983 14.8508 35.2867 13.5637 33.9949ZM40.2272 42.0639L35.9927 31.6352C35.2871 32.1864 34.5068 32.6449 33.6192 32.8839C31.6527 33.4127 32.0839 33.1821 31.2747 33.9949C29.9876 35.2867 28.2768 35.9983 26.4568 35.9983C25.2957 35.9983 24.1729 35.6655 23.1612 35.1002L28.0192 47.0646C28.4289 48.0742 29.7403 48.3208 30.486 47.5296L33.8693 43.9408L38.7871 44.1292C39.8716 44.1705 40.6369 43.0727 40.2272 42.0639ZM29.0459 31.8733C30.472 30.4155 30.6353 30.5411 32.6663 29.9852C33.9627 29.6299 34.9763 28.5939 35.3235 27.2683C36.0216 24.6058 35.8405 24.9274 37.7455 22.9792C38.6947 22.0089 39.0652 20.5942 38.718 19.2686C38.0208 16.608 38.0199 16.9792 38.718 14.3158C39.0652 12.9902 38.6947 11.5755 37.7455 10.6052C35.8405 8.65706 36.0216 8.97769 35.3235 6.31613C34.9763 4.9905 33.9627 3.95456 32.6663 3.59925C30.0641 2.88581 30.3777 3.07238 28.4709 1.12331C27.5217 0.153002 26.1376 -0.226685 24.8412 0.128627C22.24 0.841127 22.6031 0.842064 19.9972 0.128627C18.7008 -0.226685 17.3167 0.152065 16.3675 1.12331C14.4625 3.07144 14.7761 2.88581 12.1731 3.59925C10.8767 3.95456 9.86308 4.9905 9.51588 6.31613C8.81868 8.97769 8.99881 8.65706 7.09387 10.6052C6.14467 11.5755 5.77321 12.9902 6.12134 14.3158C6.81854 16.9746 6.81947 16.6033 6.12134 19.2677C5.77414 20.5933 6.14467 22.008 7.09387 22.9792C8.99881 24.9274 8.81774 24.6058 9.51588 27.2683C9.86308 28.5939 10.8767 29.6299 12.1731 29.9852C14.2619 30.5571 14.4177 30.4671 15.7925 31.8733C17.0273 33.1361 18.9509 33.3621 20.4349 32.4189C21.0284 32.0405 21.7168 31.8396 22.4197 31.8396C23.1226 31.8396 23.811 32.0405 24.4044 32.4189C25.8875 33.3621 27.8111 33.1361 29.0459 31.8733ZM13.6141 16.4946C13.6141 11.523 17.5565 7.49269 22.4192 7.49269C27.2819 7.49269 31.2243 11.523 31.2243 16.4946C31.2243 21.4661 27.2819 25.4964 22.4192 25.4964C17.5565 25.4964 13.6141 21.4661 13.6141 16.4946Z" fill="#0D5C63"/>
</g>
<defs>
<filter id="filter0_d_993_514" x="0.5" y="0" width="43.8398" height="56" filterUnits="userSpaceOnUse" color-interpolation-filters="sRGB">
<feFlood flood-opacity="0" result="BackgroundImageFix"/>
<feColorMatrix in="SourceAlpha" type="matrix" values="0 0 0 0 0 0 0 0 0 0 0 0 0 0 0 0 0 0 127 0" result="hardAlpha"/>
<feOffset dy="4"/>
<feGaussianBlur stdDeviation="2"/>
<feComposite in2="hardAlpha" operator="out"/>
<feColorMatrix type="matrix" values="0 0 0 0 0 0 0 0 0 0 0 0 0 0 0 0 0 0 0.25 0"/>
<feBlend mode="normal" in2="BackgroundImageFix" result="effect1_dropShadow_993_514"/>
<feBlend mode="normal" in="SourceGraphic" in2="effect1_dropShadow_993_514" result="shape"/>
</filter>
<clipPath id="clip0_993_514">
<rect width="35.84" height="48" fill="white" transform="translate(4.5)"/>
</clipPath>
</defs>
</svg>
